<svg width="25" height="25" viewBox="0 0 25 25" fill="none" xmlns="http://www.w3.org/2000/svg">
<path d="M20.8333 7.29169H4.16665C3.01605 7.29169 2.08331 8.22443 2.08331 9.37502V19.7917C2.08331 20.9423 3.01605 21.875 4.16665 21.875H20.8333C21.9839 21.875 22.9166 20.9423 22.9166 19.7917V9.37502C22.9166 8.22443 21.9839 7.29169 20.8333 7.29169Z" stroke="white" stroke-width="2" stroke-linecap="round" stroke-linejoin="round"/>
<path d="M16.6667 21.875V5.20833C16.6667 4.6558 16.4472 4.12589 16.0565 3.73519C15.6658 3.34449 15.1359 3.125 14.5834 3.125H10.4167C9.86417 3.125 9.33427 3.34449 8.94357 3.73519C8.55287 4.12589 8.33337 4.6558 8.33337 5.20833V21.875" stroke="white" stroke-width="2" stroke-linecap="round" stroke-linejoin="round"/>
</svg>
