<svg width="26" height="25" viewBox="0 0 26 25" fill="none" xmlns="http://www.w3.org/2000/svg">
<path d="M20.5833 17.7083V12.2917C20.0417 12.3958 19.5 12.5 18.9583 12.5H18.4167V18.75H7.58333V11.4583C7.58333 8.54167 9.96667 6.25 13 6.25C13.1083 4.89583 13.7583 3.75 14.625 2.8125C14.3 2.39583 13.65 2.08333 13 2.08333C11.8083 2.08333 10.8333 3.02083 10.8333 4.16667V4.47917C7.58333 5.41667 5.41667 8.22917 5.41667 11.4583V17.7083L3.25 19.7917V20.8333H22.75V19.7917L20.5833 17.7083ZM10.8333 21.875C10.8333 23.0208 11.8083 23.9583 13 23.9583C14.1917 23.9583 15.1667 23.0208 15.1667 21.875H10.8333ZM22.75 6.77083C22.75 8.75 21.0167 10.4167 18.9583 10.4167C16.9 10.4167 15.1667 8.75 15.1667 6.77083C15.1667 4.79167 16.9 3.125 18.9583 3.125C21.0167 3.125 22.75 4.79167 22.75 6.77083Z" fill="black"/>
</svg>
