<svg width="21" height="19" viewBox="0 0 21 19" fill="none" xmlns="http://www.w3.org/2000/svg">
<path d="M7.61497 0C9.63459 0 11.5715 0.743518 12.9996 2.06699C14.4277 3.39046 15.2299 5.18547 15.2299 7.05714C15.2299 8.80514 14.5387 10.412 13.4024 11.6497L13.7187 11.9429H14.6442L20.5019 17.3714L18.7446 19L12.8869 13.5714V12.7137L12.5706 12.4206C11.235 13.4737 9.50115 14.1143 7.61497 14.1143C5.59536 14.1143 3.65846 13.3708 2.23037 12.0473C0.802289 10.7238 0 8.92881 0 7.05714C0 5.18547 0.802289 3.39046 2.23037 2.06699C3.65846 0.743518 5.59536 0 7.61497 0ZM7.61497 2.17143C4.68614 2.17143 2.34307 4.34286 2.34307 7.05714C2.34307 9.77143 4.68614 11.9429 7.61497 11.9429C10.5438 11.9429 12.8869 9.77143 12.8869 7.05714C12.8869 4.34286 10.5438 2.17143 7.61497 2.17143Z" fill="black"/>
</svg>
