<svg width="30" height="25" viewBox="0 0 30 25" fill="none" xmlns="http://www.w3.org/2000/svg">
<path d="M15 5.72919C16.1603 5.72919 17.2731 6.1133 18.0936 6.79703C18.9141 7.48075 19.375 8.40809 19.375 9.37502C19.375 10.342 18.9141 11.2693 18.0936 11.953C17.2731 12.6367 16.1603 13.0209 15 13.0209C13.8397 13.0209 12.7269 12.6367 11.9064 11.953C11.0859 11.2693 10.625 10.342 10.625 9.37502C10.625 8.40809 11.0859 7.48075 11.9064 6.79703C12.7269 6.1133 13.8397 5.72919 15 5.72919ZM6.25 8.33335C6.95 8.33335 7.6 8.4896 8.1625 8.77085C7.975 10.2604 8.5 11.7396 9.575 12.8959C8.95 13.8959 7.7 14.5834 6.25 14.5834C5.25544 14.5834 4.30161 14.2541 3.59835 13.6681C2.89509 13.082 2.5 12.2872 2.5 11.4584C2.5 10.6296 2.89509 9.8347 3.59835 9.24864C4.30161 8.66259 5.25544 8.33335 6.25 8.33335ZM23.75 8.33335C24.7446 8.33335 25.6984 8.66259 26.4017 9.24864C27.1049 9.8347 27.5 10.6296 27.5 11.4584C27.5 12.2872 27.1049 13.082 26.4017 13.6681C25.6984 14.2541 24.7446 14.5834 23.75 14.5834C22.3 14.5834 21.05 13.8959 20.425 12.8959C21.5 11.7396 22.025 10.2604 21.8375 8.77085C22.4 8.4896 23.05 8.33335 23.75 8.33335ZM6.875 19.0104C6.875 16.8542 10.5125 15.1042 15 15.1042C19.4875 15.1042 23.125 16.8542 23.125 19.0104V20.8334H6.875V19.0104ZM0 20.8334V19.2709C0 17.8229 2.3625 16.6042 5.5625 16.25C4.825 16.9584 4.375 17.9375 4.375 19.0104V20.8334H0ZM30 20.8334H25.625V19.0104C25.625 17.9375 25.175 16.9584 24.4375 16.25C27.6375 16.6042 30 17.8229 30 19.2709V20.8334Z" fill="white"/>
</svg>
