<svg width="25" height="19" viewBox="0 0 25 19" fill="none" xmlns="http://www.w3.org/2000/svg">
<path d="M2.77778 0C2.04107 0 1.33453 0.219493 0.813592 0.610194C0.292658 1.00089 0 1.5308 0 2.08333V16.6667C0 17.2192 0.292658 17.7491 0.813592 18.1398C1.33453 18.5305 2.04107 18.75 2.77778 18.75H22.2222C22.9589 18.75 23.6655 18.5305 24.1864 18.1398C24.7073 17.7491 25 17.2192 25 16.6667V2.08333C25 1.5308 24.7073 1.00089 24.1864 0.610194C23.6655 0.219493 22.9589 0 22.2222 0H2.77778ZM4.72222 3.64583H20.2778C21.3472 3.64583 22.2222 4.29167 22.2222 5.10417V13.6458C22.2222 14.0326 22.0174 14.4035 21.6527 14.677C21.2881 14.9505 20.7935 15.1042 20.2778 15.1042H4.72222C3.65278 15.1042 2.77778 14.4479 2.77778 13.6458V5.10417C2.77778 4.29167 3.63889 3.64583 4.72222 3.64583ZM4.16667 5.20833V7.29167L12.5 11.4583L20.8333 7.29167V5.20833L12.5 9.375L4.16667 5.20833Z" fill="black"/>
</svg>
