<svg width="39" height="41" viewBox="0 0 39 41" fill="none" xmlns="http://www.w3.org/2000/svg">
<g clip-path="url(#clip0_213_3752)">
<path d="M19.5 25.625C22.1924 25.625 24.375 23.3305 24.375 20.5C24.375 17.6695 22.1924 15.375 19.5 15.375C16.8076 15.375 14.625 17.6695 14.625 20.5C14.625 23.3305 16.8076 25.625 19.5 25.625Z" stroke="white" stroke-width="2" stroke-linecap="round" stroke-linejoin="round"/>
<path d="M31.525 25.625C31.3087 26.1402 31.2442 26.7118 31.3397 27.266C31.4353 27.8202 31.6866 28.3315 32.0612 28.7341L32.1588 28.8366C32.4609 29.154 32.7006 29.5308 32.8642 29.9456C33.0277 30.3603 33.1119 30.8049 33.1119 31.2539C33.1119 31.7029 33.0277 32.1475 32.8642 32.5623C32.7006 32.9771 32.4609 33.3539 32.1588 33.6712C31.8569 33.9889 31.4985 34.2409 31.1039 34.4128C30.7094 34.5848 30.2865 34.6733 29.8594 34.6733C29.4323 34.6733 29.0094 34.5848 28.6148 34.4128C28.2203 34.2409 27.8618 33.9889 27.56 33.6712L27.4625 33.5687C27.0795 33.1749 26.5931 32.9107 26.066 32.8102C25.5388 32.7097 24.9951 32.7776 24.505 33.005C24.0244 33.2215 23.6145 33.5811 23.3257 34.0394C23.037 34.4978 22.8821 35.0348 22.88 35.5846V35.875C22.88 36.7811 22.5376 37.6502 21.9281 38.2909C21.3186 38.9317 20.492 39.2916 19.63 39.2916C18.768 39.2916 17.9414 38.9317 17.3319 38.2909C16.7224 37.6502 16.38 36.7811 16.38 35.875V35.7212C16.3674 35.1558 16.1933 34.6074 15.8803 34.1473C15.5673 33.6873 15.1299 33.3369 14.625 33.1416C14.1349 32.9142 13.5912 32.8464 13.064 32.9469C12.5369 33.0474 12.0505 33.3116 11.6675 33.7054L11.57 33.8079C11.2682 34.1256 10.9097 34.3776 10.5152 34.5495C10.1206 34.7215 9.69773 34.81 9.27062 34.81C8.84352 34.81 8.42061 34.7215 8.02607 34.5495C7.63153 34.3776 7.27309 34.1256 6.97125 33.8079C6.66908 33.4906 6.42936 33.1138 6.26581 32.699C6.10225 32.2842 6.01807 31.8396 6.01807 31.3906C6.01807 30.9416 6.10225 30.497 6.26581 30.0822C6.42936 29.6674 6.66908 29.2906 6.97125 28.9733L7.06875 28.8708C7.44337 28.4682 7.69468 27.9568 7.79026 27.4027C7.88584 26.8485 7.82131 26.2769 7.605 25.7616C7.39901 25.2564 7.05698 24.8254 6.62101 24.5219C6.18503 24.2184 5.67415 24.0555 5.15125 24.0533H4.875C4.01305 24.0533 3.1864 23.6933 2.5769 23.0526C1.96741 22.4118 1.625 21.5428 1.625 20.6366C1.625 19.7305 1.96741 18.8614 2.5769 18.2207C3.1864 17.5799 4.01305 17.22 4.875 17.22H5.02125C5.55912 17.2068 6.08076 17.0237 6.51836 16.6947C6.95596 16.3656 7.28929 15.9058 7.475 15.375C7.69131 14.8597 7.75584 14.2881 7.66026 13.734C7.56468 13.1798 7.31337 12.6684 6.93875 12.2658L6.84125 12.1633C6.53908 11.846 6.29936 11.4692 6.13581 11.0544C5.97225 10.6396 5.88807 10.195 5.88807 9.74602C5.88807 9.29702 5.97225 8.85242 6.13581 8.43764C6.29936 8.02286 6.53908 7.64605 6.84125 7.32873C7.14309 7.01106 7.50153 6.75905 7.89607 6.58711C8.29061 6.41517 8.71352 6.32667 9.14062 6.32667C9.56773 6.32667 9.99064 6.41517 10.3852 6.58711C10.7797 6.75905 11.1382 7.01106 11.44 7.32873L11.5375 7.43123C11.9205 7.82506 12.4069 8.08925 12.934 8.18974C13.4612 8.29022 14.0049 8.22238 14.495 7.99498H14.625C15.1056 7.77843 15.5155 7.41885 15.8043 6.96052C16.093 6.5022 16.2479 5.96511 16.25 5.4154V5.12498C16.25 4.21882 16.5924 3.34978 17.2019 2.70903C17.8114 2.06828 18.638 1.70831 19.5 1.70831C20.362 1.70831 21.1886 2.06828 21.7981 2.70903C22.4076 3.34978 22.75 4.21882 22.75 5.12498V5.27873C22.7521 5.82845 22.907 6.36553 23.1957 6.82386C23.4845 7.28219 23.8944 7.64176 24.375 7.85831C24.8651 8.08572 25.4088 8.15355 25.936 8.05307C26.4631 7.95259 26.9495 7.6884 27.3325 7.29456L27.43 7.19206C27.7318 6.87439 28.0903 6.62238 28.4848 6.45044C28.8794 6.2785 29.3023 6.19 29.7294 6.19C30.1565 6.19 30.5794 6.2785 30.9739 6.45044C31.3685 6.62238 31.7269 6.87439 32.0287 7.19206C32.3309 7.50938 32.5706 7.8862 32.7342 8.30098C32.8977 8.71575 32.9819 9.16035 32.9819 9.60935C32.9819 10.0584 32.8977 10.503 32.7342 10.9177C32.5706 11.3325 32.3309 11.7093 32.0287 12.0266L31.9312 12.1291C31.5566 12.5318 31.3053 13.0431 31.2097 13.5973C31.1142 14.1515 31.1787 14.7231 31.395 15.2383V15.375C31.601 15.8803 31.943 16.3112 32.379 16.6147C32.815 16.9182 33.3258 17.0811 33.8487 17.0833H34.125C34.987 17.0833 35.8136 17.4433 36.4231 18.084C37.0326 18.7248 37.375 19.5938 37.375 20.5C37.375 21.4061 37.0326 22.2752 36.4231 22.9159C35.8136 23.5567 34.987 23.9166 34.125 23.9166H33.9787C33.4558 23.9188 32.945 24.0817 32.509 24.3853C32.073 24.6888 31.731 25.1197 31.525 25.625Z" stroke="white" stroke-width="2" stroke-linecap="round" stroke-linejoin="round"/>
</g>
<defs>
<clipPath id="clip0_213_3752">
<rect width="39" height="41" fill="white"/>
</clipPath>
</defs>
</svg>
