<svg width="26" height="25" viewBox="0 0 26 25" fill="none" xmlns="http://www.w3.org/2000/svg">
<path d="M23.3186 12.625C23.1904 12.625 22.9339 12.75 22.8057 12.875L21.5233 14.125L24.2162 16.75L25.4986 15.5C25.7551 15.25 25.7551 14.75 25.4986 14.5L23.8315 12.875C23.7033 12.75 23.5751 12.625 23.3186 12.625ZM20.8821 14.875L13.0598 22.375V25H15.7528L23.5751 17.375L20.8821 14.875ZM23.3186 0H13.0598V7.5H23.3186V0ZM20.7539 5H15.6245V2.5H20.7539V5ZM13.0598 18.825V10H23.3186V10.125C22.344 10.125 21.4848 10.625 20.9976 11.1125L19.5613 12.5H15.6245V16.3375L13.0598 18.825ZM10.4951 0H0.236389V12.5H10.4951V0ZM7.93046 10H2.80108V2.5H7.93046V10ZM10.4951 21.325V15H0.236389V22.5H10.4951V21.325ZM7.93046 20H2.80108V17.5H7.93046V20Z" fill="white"/>
</svg>
