<svg width="27" height="27" viewBox="0 0 27 27" fill="none" xmlns="http://www.w3.org/2000/svg">
<path d="M26 12.8056C26.0047 14.6387 25.5764 16.4471 24.75 18.0833C23.77 20.0441 22.2635 21.6933 20.3992 22.8462C18.5349 23.9991 16.3864 24.6103 14.1944 24.6111C12.3613 24.6159 10.5529 24.1876 8.91665 23.3611L0.999997 26L3.63888 18.0833C2.8124 16.4471 2.3841 14.6387 2.38888 12.8056C2.38973 10.6136 3.00084 8.46509 4.15377 6.60079C5.30669 4.73648 6.9559 3.22998 8.91665 2.25003C10.5529 1.42355 12.3613 0.995252 14.1944 1.00003H14.8889C17.7838 1.15974 20.5181 2.38164 22.5682 4.43177C24.6183 6.48191 25.8402 9.2162 26 12.1111V12.8056Z" stroke="white" stroke-width="2" stroke-linecap="round" stroke-linejoin="round"/>
</svg>
