<svg width="20" height="5" viewBox="0 0 20 5" fill="none" xmlns="http://www.w3.org/2000/svg">
<path d="M15.0007 2.5C15.0007 1.83696 15.2641 1.20107 15.733 0.732234C16.2018 0.263393 16.8377 0 17.5007 0C18.1638 0 18.7997 0.263393 19.2685 0.732234C19.7373 1.20107 20.0007 1.83696 20.0007 2.5C20.0007 3.16304 19.7373 3.79893 19.2685 4.26777C18.7997 4.73661 18.1638 5 17.5007 5C16.8377 5 16.2018 4.73661 15.733 4.26777C15.2641 3.79893 15.0007 3.16304 15.0007 2.5ZM7.50073 2.5C7.50073 1.83696 7.76413 1.20107 8.23297 0.732234C8.70181 0.263393 9.33769 0 10.0007 0C10.6638 0 11.2997 0.263393 11.7685 0.732234C12.2373 1.20107 12.5007 1.83696 12.5007 2.5C12.5007 3.16304 12.2373 3.79893 11.7685 4.26777C11.2997 4.73661 10.6638 5 10.0007 5C9.33769 5 8.70181 4.73661 8.23297 4.26777C7.76413 3.79893 7.50073 3.16304 7.50073 2.5ZM0.000732422 2.5C0.000732422 1.83696 0.264124 1.20107 0.732965 0.732234C1.20181 0.263393 1.83769 0 2.50073 0C3.16377 0 3.79966 0.263393 4.2685 0.732234C4.73734 1.20107 5.00073 1.83696 5.00073 2.5C5.00073 3.16304 4.73734 3.79893 4.2685 4.26777C3.79966 4.73661 3.16377 5 2.50073 5C1.83769 5 1.20181 4.73661 0.732965 4.26777C0.264124 3.79893 0.000732422 3.16304 0.000732422 2.5Z" fill="black" fill-opacity="0.8"/>
</svg>
