<svg width="32" height="32" viewBox="0 0 32 32" fill="none" xmlns="http://www.w3.org/2000/svg">
<g clip-path="url(#clip0_3_227)">
<path d="M7.09188 19.3379L5.978 23.4962L1.90681 23.5823C0.690125 21.3256 0 18.7437 0 15.9999C0 13.3468 0.64525 10.8448 1.789 8.6417H1.78988L5.41437 9.3062L7.00212 12.9089C6.66981 13.8778 6.48869 14.9178 6.48869 15.9999C6.48881 17.1744 6.70156 18.2998 7.09188 19.3379Z" fill="#FBBB00"/>
<path d="M31.7207 13.011C31.9045 13.9788 32.0003 14.9784 32.0003 16C32.0003 17.1455 31.8799 18.2628 31.6504 19.3407C30.8716 23.0083 28.8364 26.211 26.0171 28.4773L26.0162 28.4765L21.4509 28.2435L20.8048 24.2101C22.6756 23.113 24.1376 21.396 24.9077 19.3407H16.3521V13.011H25.0325H31.7207Z" fill="#518EF8"/>
<path d="M26.0157 28.4764L26.0166 28.4773C23.2747 30.6812 19.7915 31.9999 15.9999 31.9999C9.90674 31.9999 4.60918 28.5942 1.90674 23.5824L7.0918 19.338C8.44299 22.9441 11.9217 25.5112 15.9999 25.5112C17.7529 25.5112 19.3951 25.0373 20.8043 24.21L26.0157 28.4764Z" fill="#28B446"/>
<path d="M26.2128 3.6835L21.0295 7.927C19.5711 7.01538 17.8471 6.48875 16.0001 6.48875C11.8295 6.48875 8.28575 9.17356 7.00225 12.909L1.78994 8.64175H1.78906C4.45194 3.50769 9.81631 0 16.0001 0C19.8823 0 23.4418 1.38287 26.2128 3.6835Z" fill="#F14336"/>
</g>
<defs>
<clipPath id="clip0_3_227">
<rect width="32" height="32" fill="white"/>
</clipPath>
</defs>
</svg>
